<svg width="36" height="36" viewBox="0 0 36 36" fill="none" xmlns="http://www.w3.org/2000/svg">
<path d="M10.14 33.0005H25.86C30 33.0005 31.65 30.4655 31.845 27.3755L32.625 14.9855C32.835 11.7455 30.255 9.00049 27 9.00049C26.085 9.00049 25.245 8.47549 24.825 7.66549L23.745 5.49049C23.055 4.12549 21.255 3.00049 19.725 3.00049H16.29C14.745 3.00049 12.945 4.12549 12.255 5.49049L11.175 7.66549C10.755 8.47549 9.91501 9.00049 9.00001 9.00049C5.74501 9.00049 3.16501 11.7455 3.37501 14.9855L4.15501 27.3755C4.33501 30.4655 6.00001 33.0005 10.14 33.0005Z" fill="white" fill-opacity="0.87"/>
<path d="M20.25 13.1255H15.75C15.135 13.1255 14.625 12.6155 14.625 12.0005C14.625 11.3855 15.135 10.8755 15.75 10.8755H20.25C20.865 10.8755 21.375 11.3855 21.375 12.0005C21.375 12.6155 20.865 13.1255 20.25 13.1255Z" fill="#3CC448"/>
<path d="M18.0002 27.1944C20.8003 27.1944 23.0702 24.9245 23.0702 22.1244C23.0702 19.3244 20.8003 17.0544 18.0002 17.0544C15.2001 17.0544 12.9302 19.3244 12.9302 22.1244C12.9302 24.9245 15.2001 27.1944 18.0002 27.1944Z" fill="#3CC448"/>
</svg>
