<svg width="24" height="24" viewBox="0 0 24 24" fill="none" xmlns="http://www.w3.org/2000/svg">
<path d="M18.6901 11.53C18.1201 11.38 17.4501 11.3 16.6501 11.3C15.5401 11.3 15.1301 11.57 14.5601 12C14.5301 12.02 14.5001 12.05 14.4701 12.08L13.5201 13.09C12.7301 13.94 11.2801 13.94 10.4801 13.09L9.53005 12.09C9.5053 12.0552 9.47487 12.0248 9.44005 12C8.86005 11.57 8.45005 11.3 7.35005 11.3C6.55005 11.3 5.88005 11.37 5.31005 11.53C2.93005 12.17 2.93005 14.06 2.93005 15.72V16.65C2.93005 19.16 2.93005 22 8.28005 22H15.7201C19.2701 22 21.0701 20.2 21.0701 16.65V15.72C21.0701 14.06 21.0701 12.17 18.6901 11.53Z" fill="white"/>
<path opacity="0.4" d="M14.79 2H9.21004C4.79004 2 4.79004 4.35 4.79004 6.42V12.21C4.79004 12.43 4.89004 12.63 5.06004 12.76C5.23004 12.89 5.46004 12.94 5.67004 12.88C6.12004 12.76 6.68004 12.7 7.35004 12.7C8.02004 12.7 8.16004 12.78 8.56004 13.08L9.47004 14.04C9.79555 14.3876 10.1889 14.6646 10.6258 14.854C11.0627 15.0434 11.5338 15.1412 12.01 15.1412C12.4862 15.1412 12.9574 15.0434 13.3943 14.854C13.8312 14.6646 14.2245 14.3876 14.55 14.04L15.46 13.08C15.86 12.78 16 12.7 16.67 12.7C17.34 12.7 17.9 12.76 18.35 12.88C18.56 12.94 18.78 12.89 18.96 12.76C19.13 12.63 19.23 12.42 19.23 12.21V6.42C19.21 4.35 19.21 2 14.79 2Z" fill="white"/>
<path d="M13.55 9.91201H10.45C10.06 9.91201 9.74999 9.60201 9.74999 9.21201C9.74999 8.82201 10.06 8.51201 10.45 8.51201H13.55C13.94 8.51201 14.25 8.82201 14.25 9.21201C14.25 9.59201 13.93 9.91201 13.55 9.91201ZM14.329 7.11901H9.66899C9.27899 7.11901 8.96899 6.80901 8.96899 6.41901C8.96899 6.02901 9.27899 5.71901 9.66899 5.71901H14.319C14.5046 5.71769 14.6832 5.79016 14.8154 5.9205C14.9476 6.05084 15.0227 6.22836 15.024 6.41401C15.0253 6.59966 14.9528 6.77824 14.8225 6.91045C14.6922 7.04266 14.5146 7.11769 14.329 7.11901Z" fill="white"/>
</svg>
