<svg width="20" height="20" viewBox="0 0 20 20" fill="none" xmlns="http://www.w3.org/2000/svg">
<g clip-path="url(#clip0_119_173)">
<path d="M18.3334 6.89163V3.52496C18.3334 2.19996 17.8001 1.66663 16.4751 1.66663H13.1084C11.7834 1.66663 11.2501 2.19996 11.2501 3.52496V6.89163C11.2501 8.21663 11.7834 8.74996 13.1084 8.74996H16.4751C17.8001 8.74996 18.3334 8.21663 18.3334 6.89163ZM8.75008 7.09996V3.31663C8.75008 2.14163 8.21675 1.66663 6.89175 1.66663H3.52508C2.20008 1.66663 1.66675 2.14163 1.66675 3.31663V7.09163C1.66675 8.27496 2.20008 8.74163 3.52508 8.74163H6.89175C8.21675 8.74996 8.75008 8.27496 8.75008 7.09996ZM8.75008 16.475V13.1083C8.75008 11.7833 8.21675 11.25 6.89175 11.25H3.52508C2.20008 11.25 1.66675 11.7833 1.66675 13.1083V16.475C1.66675 17.8 2.20008 18.3333 3.52508 18.3333H6.89175C8.21675 18.3333 8.75008 17.8 8.75008 16.475Z" stroke="white" stroke-width="1.5" stroke-linecap="round" stroke-linejoin="round"/>
<path d="M12.0833 14.5834H17.0833M14.5833 17.0834V12.0834" stroke="white" stroke-width="1.5" stroke-linecap="round"/>
</g>
<defs>
<clipPath id="clip0_119_173">
<rect width="20" height="20" fill="white"/>
</clipPath>
</defs>
</svg>
