<svg width="14" height="15" viewBox="0 0 14 15" fill="none" xmlns="http://www.w3.org/2000/svg">
<path d="M7.40845 10.3467H7.81678C8.48761 10.3467 9.03595 9.79834 9.03595 9.12751V8.71918H7.40845V10.3467Z" fill="#7D7F88"/>
<path d="M4.96411 9.12751C4.96411 9.79834 5.51244 10.3467 6.18328 10.3467H6.59161V8.71918H4.96411V9.12751Z" fill="#7D7F88"/>
<path d="M4.96411 7.49999V7.90832H6.59161V6.28082H6.18328C5.51244 6.28082 4.96411 6.82916 4.96411 7.49999Z" fill="#7D7F88"/>
<path d="M11.6842 4.47835L8.33008 2.12751C7.41425 1.48585 6.01425 1.52085 5.13341 2.20335L2.21091 4.48418C1.62175 4.93918 1.16675 5.87251 1.16675 6.60751V10.6325C1.16675 12.12 2.37425 13.3333 3.85591 13.3333H10.1384C11.6201 13.3333 12.8276 12.1258 12.8276 10.6383V6.68335C12.8334 5.89585 12.3259 4.92751 11.6842 4.47835ZM9.84675 9.12751C9.84675 10.2475 8.93091 11.1633 7.81091 11.1633H6.18341C5.06341 11.1633 4.14758 10.2533 4.14758 9.12751V7.50001C4.14758 6.38001 5.06341 5.46418 6.18341 5.46418H7.81091C8.93091 5.46418 9.84675 6.37418 9.84675 7.50001V9.12751Z" fill="#7D7F88"/>
<path d="M7.81678 6.28082H7.40845V7.90832H9.03595V7.49999C9.03595 6.82916 8.48761 6.28082 7.81678 6.28082Z" fill="#7D7F88"/>
</svg>
