<svg width="14" height="15" viewBox="0 0 14 15" fill="none" xmlns="http://www.w3.org/2000/svg">
<g clip-path="url(#clip0_425_364)">
<path d="M3.50011 3.41665V4.58332M5.83344 3.41665V4.58332M3.50011 10.4167V11.5833M5.83344 10.4167V11.5833M8.16677 3.99999H10.5001M8.16677 11H10.5001M11.2701 6.33332H2.73594C1.87261 6.33332 1.17261 5.62749 1.17261 4.76999V3.23582C1.17261 2.37249 1.87844 1.67249 2.73594 1.67249H11.2701C12.1334 1.67249 12.8334 2.37832 12.8334 3.23582V4.76999C12.8334 5.62749 12.1276 6.33332 11.2701 6.33332ZM11.2701 13.3333H2.73594C1.87261 13.3333 1.17261 12.6275 1.17261 11.77V10.2358C1.17261 9.37249 1.87844 8.67249 2.73594 8.67249H11.2701C12.1334 8.67249 12.8334 9.37832 12.8334 10.2358V11.77C12.8334 12.6275 12.1276 13.3333 11.2701 13.3333Z" stroke="#7D7F88" stroke-width="1.5" stroke-linecap="round" stroke-linejoin="round"/>
</g>
<defs>
<clipPath id="clip0_425_364">
<rect width="14" height="14" fill="white" transform="translate(0 0.5)"/>
</clipPath>
</defs>
</svg>
