<svg width="24" height="24" viewBox="0 0 24 24" fill="none" xmlns="http://www.w3.org/2000/svg">
<path d="M19.97 1.75H17.03C15.76 1.75 15 2.51 15 3.78V6.72C15 7.99 15.76 8.75 17.03 8.75H19.97C21.24 8.75 22 7.99 22 6.72V3.78C22 2.51 21.24 1.75 19.97 1.75ZM20.19 5.06C20.1321 5.11747 20.0634 5.16296 19.9879 5.19385C19.9124 5.22474 19.8316 5.24042 19.75 5.24C19.6684 5.24042 19.5876 5.22474 19.5121 5.19385C19.4366 5.16296 19.3679 5.11747 19.31 5.06L19.13 4.88V7.12C19.13 7.47 18.85 7.75 18.5 7.75C18.15 7.75 17.87 7.47 17.87 7.12V4.88L17.69 5.06C17.45 5.3 17.05 5.3 16.81 5.06C16.6947 4.94257 16.6301 4.78457 16.6301 4.62C16.6301 4.45543 16.6947 4.29743 16.81 4.18L18.06 2.93C18.11 2.88 18.18 2.84 18.25 2.81C18.27 2.8 18.29 2.8 18.31 2.79C18.36 2.77 18.41 2.76 18.47 2.76H18.53C18.6 2.76 18.66 2.77 18.73 2.8H18.75C18.82 2.83 18.88 2.87 18.93 2.92C18.94 2.93 18.94 2.93 18.95 2.93L20.2 4.18C20.44 4.42 20.44 4.82 20.19 5.06ZM2 11.46V16.46C2 18.75 3.85 20.6 6.14 20.6H17.85C20.14 20.6 22 18.74 22 16.45V11.46C22 10.79 21.46 10.25 20.79 10.25H3.21C2.54 10.25 2 10.79 2 11.46ZM8 17.25H6C5.59 17.25 5.25 16.91 5.25 16.5C5.25 16.09 5.59 15.75 6 15.75H8C8.41 15.75 8.75 16.09 8.75 16.5C8.75 16.91 8.41 17.25 8 17.25ZM14.5 17.25H10.5C10.09 17.25 9.75 16.91 9.75 16.5C9.75 16.09 10.09 15.75 10.5 15.75H14.5C14.91 15.75 15.25 16.09 15.25 16.5C15.25 16.91 14.91 17.25 14.5 17.25ZM13.5 4.608V7.538C13.5 8.208 12.96 8.748 12.29 8.748H3.21C2.53 8.748 2 8.188 2 7.518C2.01 6.388 2.46 5.358 3.21 4.608C3.96 3.858 5 3.398 6.14 3.398H12.29C12.96 3.398 13.5 3.938 13.5 4.608Z" fill="#393E48"/>
</svg>
