<svg width="24" height="24" viewBox="0 0 24 24" fill="none" xmlns="http://www.w3.org/2000/svg">
<path opacity="0.4" d="M14.79 6H9.21004C4.79004 6 4.79004 8.35 4.79004 10.42V12.21C4.79004 12.43 4.89004 12.63 5.06004 12.76C5.23004 12.89 5.46004 12.94 5.67004 12.88C6.12004 12.76 6.68004 12.7 7.35004 12.7C8.02004 12.7 8.16004 12.78 8.56004 13.08L9.47004 14.04C9.79555 14.3876 10.1889 14.6646 10.6258 14.854C11.0627 15.0434 11.5338 15.1412 12.01 15.1412C12.4862 15.1412 12.9574 15.0434 13.3943 14.854C13.8312 14.6646 14.2245 14.3876 14.55 14.04L15.46 13.08C15.86 12.78 16 12.7 16.67 12.7C17.34 12.7 17.9 12.76 18.35 12.88C18.56 12.94 18.78 12.89 18.96 12.76C19.13 12.63 19.23 12.42 19.23 12.21V10.42C19.21 8.35 19.21 6 14.79 6Z" fill="white"/>
<path d="M14.2781 4.95C14.0181 5.21 13.5881 5.21 13.3281 4.95L12.6781 4.3V9.07C12.6781 9.25035 12.6064 9.42331 12.4789 9.55083C12.3514 9.67836 12.1784 9.75 11.9981 9.75C11.8177 9.75 11.6447 9.67836 11.5172 9.55083C11.3897 9.42331 11.3181 9.25035 11.3181 9.07V4.3L10.6681 4.95C10.4081 5.21 9.97805 5.21 9.71805 4.95C9.59311 4.82348 9.52304 4.65282 9.52304 4.475C9.52304 4.29718 9.59311 4.12652 9.71805 4L11.5181 2.2C11.5281 2.19 11.5281 2.19 11.5381 2.19C11.5981 2.14 11.6581 2.09 11.7381 2.06C11.8281 2.02 11.9081 2 11.9981 2C12.0881 2 12.1681 2.02 12.2581 2.05C12.3381 2.08 12.4181 2.13 12.4781 2.2L14.2781 4C14.5381 4.26 14.5381 4.69 14.2781 4.95ZM18.6901 11.53C18.1201 11.38 17.4501 11.3 16.6501 11.3C15.5401 11.3 15.1301 11.57 14.5601 12C14.5301 12.02 14.5001 12.05 14.4701 12.08L13.5201 13.09C12.7201 13.93 11.2801 13.94 10.4801 13.08L9.53005 12.08C9.50005 12.05 9.47005 12.02 9.44005 12C8.87005 11.57 8.46005 11.3 7.35005 11.3C6.55005 11.3 5.88005 11.38 5.31005 11.53C2.93005 12.17 2.93005 14.06 2.93005 15.72V16.65C2.93005 19.16 2.93005 22 8.28005 22H15.7201C19.2701 22 21.0701 20.2 21.0701 16.65V15.72C21.0701 14.06 21.0701 12.17 18.6901 11.53ZM14.3301 18.4H9.67005C9.29005 18.4 8.98005 18.09 8.98005 17.7C8.98005 17.31 9.29005 17 9.67005 17H14.3301C14.7101 17 15.0201 17.31 15.0201 17.7C15.0201 18.09 14.7101 18.4 14.3301 18.4Z" fill="white"/>
<path opacity="0.4" d="M15.02 17.7C15.02 18.09 14.71 18.4 14.33 18.4H9.66998C9.28998 18.4 8.97998 18.09 8.97998 17.7C8.97998 17.31 9.28998 17 9.66998 17H14.33C14.71 17 15.02 17.31 15.02 17.7Z" fill="white"/>
</svg>
