<svg width="22" height="22" viewBox="0 0 22 22" fill="none" xmlns="http://www.w3.org/2000/svg">
<path d="M10.9999 1.8335C8.59825 1.8335 6.64575 3.786 6.64575 6.18766C6.64575 8.5435 8.48825 10.4502 10.8899 10.5327C10.9633 10.5235 11.0366 10.5235 11.0916 10.5327C11.1099 10.5327 11.1191 10.5327 11.1374 10.5327C11.1466 10.5327 11.1466 10.5327 11.1558 10.5327C13.5024 10.4502 15.3449 8.5435 15.3541 6.18766C15.3541 3.786 13.4016 1.8335 10.9999 1.8335Z" fill="#393E48"/>
<path d="M15.6566 12.9706C13.0991 11.2656 8.9283 11.2656 6.35246 12.9706C5.1883 13.7498 4.54663 14.804 4.54663 15.9315C4.54663 17.059 5.1883 18.104 6.3433 18.874C7.62663 19.7356 9.3133 20.1665 11 20.1665C12.6866 20.1665 14.3733 19.7356 15.6566 18.874C16.8116 18.0948 17.4533 17.0498 17.4533 15.9131C17.4441 14.7856 16.8116 13.7406 15.6566 12.9706Z" fill="#393E48"/>
</svg>
