<svg width="22" height="22" viewBox="0 0 22 22" fill="none" xmlns="http://www.w3.org/2000/svg">
<path d="M15.5833 2.22754H6.41659C3.66659 2.22754 1.83325 4.06087 1.83325 6.81087V12.3109C1.83325 15.0609 3.66659 16.8942 6.41659 16.8942V18.8467C6.41659 19.58 7.23242 20.02 7.83742 19.6075L11.9166 16.8942H15.5833C18.3333 16.8942 20.1666 15.0609 20.1666 12.3109V6.81087C20.1666 4.06087 18.3333 2.22754 15.5833 2.22754ZM10.9999 13.3834C10.6149 13.3834 10.3124 13.0717 10.3124 12.6959C10.3124 12.32 10.6149 12.0084 10.9999 12.0084C11.3849 12.0084 11.6874 12.32 11.6874 12.6959C11.6874 13.0717 11.3849 13.3834 10.9999 13.3834ZM12.1549 9.57921C11.7974 9.81754 11.6874 9.97337 11.6874 10.23V10.4225C11.6874 10.7984 11.3758 11.11 10.9999 11.11C10.6241 11.11 10.3124 10.7984 10.3124 10.4225V10.23C10.3124 9.16671 11.0916 8.64421 11.3849 8.44254C11.7241 8.21337 11.8341 8.05754 11.8341 7.81921C11.8341 7.36087 11.4583 6.98504 10.9999 6.98504C10.5416 6.98504 10.1658 7.36087 10.1658 7.81921C10.1658 8.19504 9.85409 8.50671 9.47825 8.50671C9.10242 8.50671 8.79075 8.19504 8.79075 7.81921C8.79075 6.60004 9.78075 5.61004 10.9999 5.61004C12.2191 5.61004 13.2091 6.60004 13.2091 7.81921C13.2091 8.86421 12.4391 9.38671 12.1549 9.57921Z" fill="#393E48"/>
</svg>
